<?xml version="1.0" standalone="no"?>
<!DOCTYPE svg PUBLIC "-//W3C//DTD SVG 20010904//EN"
 "http://www.w3.org/TR/2001/REC-SVG-20010904/DTD/svg10.dtd">
<svg version="1.0" xmlns="http://www.w3.org/2000/svg"
 width="256.000000pt" height="256.000000pt" viewBox="0 0 256.000000 256.000000"
 preserveAspectRatio="xMidYMid meet">

<g transform="translate(0.000000,256.000000) scale(0.100000,-0.100000)"
fill="#000000" stroke="none">
<path d="M825 2017 c-55 -22 -84 -48 -110 -100 -23 -48 -25 -61 -25 -196 l0
-146 49 -27 c27 -16 52 -28 55 -28 3 0 6 63 6 141 0 161 10 195 69 235 31 21
47 24 123 24 49 0 88 -3 87 -7 0 -5 -19 -39 -42 -78 -36 -58 -48 -70 -76 -76
-48 -10 -91 -57 -98 -106 -13 -95 81 -168 172 -133 49 19 65 -1 65 -78 0 -37
4 -72 8 -79 20 -32 273 -45 340 -18 20 9 73 51 117 94 101 97 141 128 202 151
43 16 46 19 23 24 -56 12 -489 66 -501 62 -8 -2 -27 -7 -42 -10 -49 -11 -20
-23 88 -35 75 -9 105 -17 105 -26 0 -25 -20 -27 -148 -10 -142 19 -182 34
-182 68 0 12 -7 33 -16 45 -15 22 -12 29 67 165 45 78 84 145 86 150 7 12
-389 7 -422 -6z"/>
<path d="M1335 2005 c-8 -14 -22 -36 -30 -50 -8 -13 -15 -26 -15 -29 0 -2 45
-4 99 -4 115 -1 147 -13 186 -69 20 -30 25 -50 25 -95 0 -49 3 -58 18 -58 9 0
34 -3 55 -6 l37 -7 0 79 c0 133 -31 197 -114 239 -43 22 -64 25 -148 25 -93 0
-98 -1 -113 -25z"/>
<path d="M1793 1570 l-22 -9 20 -51 c10 -27 19 -71 19 -97 l0 -46 22 19 c60
54 96 152 66 182 -14 14 -73 15 -105 2z"/>
<path d="M1698 1515 c-37 -25 -37 -25 -22 -60 20 -49 18 -98 -7 -129 -32 -41
-79 -34 -105 16 -21 41 -38 23 -23 -23 7 -19 23 -49 36 -66 69 -93 196 17 195
168 0 45 -22 119 -35 119 -1 0 -19 -11 -39 -25z"/>
<path d="M690 1329 c0 -158 11 -200 66 -256 61 -61 103 -67 400 -58 221 7 245
9 279 29 21 11 49 35 62 52 l23 31 -79 7 c-46 4 -90 2 -106 -4 -14 -5 -115
-10 -224 -10 -189 0 -200 1 -232 23 -62 42 -79 79 -79 176 l0 86 -45 28 c-25
15 -50 27 -55 27 -6 0 -10 -54 -10 -131z"/>
<path d="M1600 1425 c-20 -21 -22 -28 -12 -50 25 -56 84 -8 62 50 -12 31 -21
31 -50 0z m10 -35 c0 -5 -2 -10 -4 -10 -3 0 -8 5 -11 10 -3 6 -1 10 4 10 6 0
11 -4 11 -10z m30 -10 c-6 -11 -16 -20 -22 -20 -6 0 -3 9 7 20 10 11 20 20 22
20 2 0 -1 -9 -7 -20z"/>
<path d="M1465 1307 c-27 -16 -45 -18 -165 -14 l-134 5 29 -24 c54 -43 129
-64 252 -71 79 -4 113 -3 113 5 0 6 -5 14 -11 18 -6 3 -21 28 -33 53 l-22 47
-29 -19z"/>
<path d="M499 791 c-60 -61 -26 -161 56 -161 37 0 75 28 75 54 0 26 -17 26
-34 1 -18 -27 -54 -33 -74 -13 -17 17 -15 84 4 102 21 21 41 20 61 -4 20 -22
43 -27 43 -7 0 18 -12 32 -37 46 -35 18 -63 13 -94 -18z"/>
<path d="M1910 805 c-7 -9 -10 -18 -7 -22 8 -7 37 15 37 28 0 14 -16 11 -30
-6z"/>
<path d="M1502 798 c3 -7 16 -14 31 -16 25 -3 26 -6 29 -75 2 -56 6 -72 18
-72 12 0 16 16 18 71 3 71 3 72 33 78 54 10 20 26 -57 26 -56 0 -75 -3 -72
-12z"/>
<path d="M679 751 c-29 -24 -18 -39 15 -21 24 12 66 6 52 -8 -4 -4 -24 -12
-44 -17 -32 -9 -37 -15 -37 -40 0 -26 4 -30 29 -33 16 -2 33 1 39 7 7 7 14 7
23 0 7 -6 17 -8 22 -5 13 8 -2 116 -19 127 -23 14 -55 10 -80 -10z m61 -81
c-11 -21 -35 -27 -45 -10 -10 16 4 30 31 30 22 0 23 -3 14 -20z"/>
<path d="M814 756 c-3 -7 -4 -38 -2 -67 2 -40 7 -54 18 -54 11 0 16 14 20 50
4 36 10 51 22 53 14 3 17 -6 20 -50 2 -39 7 -53 18 -53 11 0 16 14 20 50 4 36
10 51 22 53 14 3 17 -6 20 -50 2 -39 7 -53 18 -53 16 0 26 60 16 101 -7 26
-38 39 -63 26 -11 -7 -25 -6 -40 1 -17 7 -27 6 -39 -4 -13 -11 -18 -11 -21 -1
-6 16 -22 15 -29 -2z"/>
<path d="M1062 754 c-28 -20 -31 -83 -4 -107 23 -21 75 -22 92 -2 18 22 4 31
-25 15 -20 -11 -27 -11 -40 0 -25 21 -17 29 33 32 41 3 47 6 44 23 -4 24 -38
55 -61 55 -9 0 -27 -7 -39 -16z m66 -31 c2 -9 -7 -13 -27 -13 -30 0 -39 9 -24
24 11 10 46 3 51 -11z"/>
<path d="M1194 755 c-3 -7 -4 -37 -2 -66 2 -40 7 -54 18 -54 11 0 16 14 20 50
4 41 9 50 25 51 36 2 39 4 27 16 -16 16 -83 18 -88 3z"/>
<path d="M1323 760 c-26 -10 -31 -40 -8 -40 8 0 15 5 15 10 0 6 11 10 25 10
16 0 25 -6 25 -15 0 -9 -9 -15 -24 -15 -13 0 -34 -9 -47 -19 -20 -16 -22 -23
-13 -38 13 -21 60 -29 79 -13 9 7 15 8 20 0 15 -24 25 -6 25 44 0 45 -4 58
-22 70 -25 18 -42 19 -75 6z m57 -84 c0 -18 -30 -30 -43 -17 -5 5 -6 14 -3 20
10 16 46 13 46 -3z"/>
<path d="M1757 764 c-4 -4 -7 -36 -7 -71 0 -49 3 -63 15 -63 11 0 15 12 15 44
0 44 16 69 40 64 7 -2 14 2 17 8 5 16 -27 27 -42 14 -7 -6 -15 -6 -21 0 -6 6
-13 7 -17 4z"/>
<path d="M1866 763 c-11 -11 -6 -109 6 -121 7 -7 21 -12 33 -12 12 0 26 5 33
12 9 9 12 9 12 0 0 -7 7 -12 15 -12 13 0 15 12 13 68 -3 66 -20 90 -26 35 -5
-57 -12 -73 -31 -73 -22 0 -31 19 -31 65 0 33 -11 51 -24 38z"/>
<path d="M2036 749 c-32 -25 -36 -77 -8 -102 25 -23 75 -21 96 2 26 29 9 48
-19 21 -37 -35 -80 3 -55 50 13 24 27 25 52 3 29 -26 46 -1 19 26 -27 27 -51
27 -85 0z"/>
<path d="M1653 698 c2 -7 19 -13 37 -13 18 0 35 6 38 13 2 8 -9 12 -38 12 -29
0 -40 -4 -37 -12z"/>
<path d="M649 443 c5 -37 6 -37 9 -8 2 16 9 33 15 37 8 5 4 8 -8 8 -18 0 -20
-5 -16 -37z"/>
<path d="M692 445 c0 -22 3 -30 5 -17 2 12 8 22 13 22 5 0 11 -10 13 -22 4
-20 4 -19 6 5 1 17 -4 27 -13 27 -8 0 -17 6 -19 13 -3 6 -5 -6 -5 -28z"/>
<path d="M951 470 c0 -8 6 -23 13 -33 13 -17 14 -17 21 0 7 16 9 15 15 -7 7
-21 8 -19 7 14 l0 38 -18 -23 -18 -24 -10 25 c-5 14 -10 18 -10 10z"/>
<path d="M1111 443 c1 -23 3 -29 6 -15 2 12 9 22 14 22 5 0 10 -10 10 -22 1
-19 2 -20 6 -5 3 11 -4 27 -16 38 l-21 20 1 -38z"/>
<path d="M1220 445 c0 -28 4 -35 19 -35 11 0 22 4 25 9 4 5 -3 7 -14 4 -11 -3
-20 0 -20 6 0 6 6 11 14 11 15 0 28 24 19 34 -4 3 -15 6 -25 6 -14 0 -18 -8
-18 -35z m30 15 c0 -5 -4 -10 -10 -10 -5 0 -10 5 -10 10 0 6 5 10 10 10 6 0
10 -4 10 -10z"/>
<path d="M1421 445 c1 -40 1 -40 10 -10 5 18 5 33 -1 39 -7 7 -10 -4 -9 -29z"/>
<path d="M1468 468 c-3 -7 -1 -24 3 -38 6 -22 7 -20 8 13 1 38 -3 47 -11 25z"/>
<path d="M1657 474 c-11 -11 -8 -26 3 -19 6 3 10 -3 10 -14 0 -11 5 -23 11
-27 8 -4 9 1 4 17 -11 36 -20 50 -28 43z"/>
<path d="M1550 454 c0 -8 5 -12 10 -9 6 4 8 11 5 16 -9 14 -15 11 -15 -7z"/>
<path d="M1790 440 c0 -16 4 -30 8 -30 5 0 7 14 4 30 -2 17 -6 30 -8 30 -2 0
-4 -13 -4 -30z"/>
<path d="M757 454 c-15 -15 -7 -45 11 -42 9 2 17 12 17 22 0 20 -16 31 -28 20z
m23 -19 c0 -8 -4 -15 -10 -15 -5 0 -10 7 -10 15 0 8 5 15 10 15 6 0 10 -7 10
-15z"/>
<path d="M810 452 c0 -5 7 -9 15 -9 8 0 15 4 15 9 0 4 -7 8 -15 8 -8 0 -15 -4
-15 -8z"/>
<path d="M863 444 c-4 -10 1 -22 11 -29 13 -10 14 -14 4 -18 -8 -4 -7 -6 5 -6
13 -1 17 7 17 34 0 38 -25 50 -37 19z m27 -9 c0 -8 -4 -15 -10 -15 -5 0 -10 7
-10 15 0 8 5 15 10 15 6 0 10 -7 10 -15z"/>
<path d="M1051 433 c2 -24 2 -25 6 -5 2 12 8 22 13 22 5 0 11 -10 13 -22 4
-20 4 -19 6 5 1 21 -4 27 -19 27 -15 0 -20 -6 -19 -27z"/>
<path d="M1298 452 c11 -7 11 -10 -2 -15 -18 -7 -22 -27 -5 -27 5 0 7 5 4 10
-3 6 -2 10 4 10 5 0 12 -6 15 -12 3 -7 4 -2 3 11 -1 14 -9 26 -17 28 -12 4
-12 3 -2 -5z"/>
<path d="M1336 444 c-5 -13 -4 -14 7 -6 8 7 17 9 20 5 11 -11 8 -21 -8 -26
-11 -4 -10 -4 2 -3 23 2 24 40 2 44 -9 2 -19 -5 -23 -14z"/>
<path d="M1515 451 c17 -8 18 -10 3 -10 -11 -1 -18 -8 -17 -18 0 -11 3 -13 6
-5 2 6 9 12 14 12 6 0 7 -4 4 -10 -3 -5 -1 -10 5 -10 20 0 6 45 -15 47 l-20 3
20 -9z"/>
<path d="M1707 453 c-4 -3 -7 -16 -6 -27 0 -20 1 -20 10 2 5 13 13 20 19 17 5
-3 10 -1 10 4 0 12 -23 15 -33 4z"/>
<path d="M1824 445 c-7 -18 3 -35 22 -35 8 0 14 10 14 25 0 27 -27 35 -36 10z
m26 -10 c0 -8 -4 -15 -10 -15 -5 0 -10 7 -10 15 0 8 5 15 10 15 6 0 10 -7 10
-15z"/>
<path d="M1888 453 c7 -3 16 -2 19 1 4 3 -2 6 -13 5 -11 0 -14 -3 -6 -6z"/>
<path d="M1931 433 c2 -24 2 -25 6 -5 2 12 8 22 13 22 5 0 11 -10 13 -22 4
-20 4 -19 6 5 1 21 -4 27 -19 27 -15 0 -20 -6 -19 -27z"/>
<path d="M1022 430 c0 -14 2 -19 5 -12 2 6 2 18 0 25 -3 6 -5 1 -5 -13z"/>
<path d="M1440 430 c0 -5 5 -10 10 -10 6 0 10 5 10 10 0 6 -4 10 -10 10 -5 0
-10 -4 -10 -10z"/>
<path d="M1636 424 c-5 -14 -4 -15 9 -4 17 14 19 20 6 20 -5 0 -12 -7 -15 -16z"/>
<path d="M1888 433 c7 -3 16 -2 19 1 4 3 -2 6 -13 5 -11 0 -14 -3 -6 -6z"/>
</g>
</svg>
